<svg aria-hidden="true" style="position: absolute; width: 0; height: 0; overflow: hidden;" version="1.1" xmlns="http://www.w3.org/2000/svg" xmlns:xlink="http://www.w3.org/1999/xlink">
<defs>
<symbol id="icon-icondark-cab" viewBox="0 0 32 32">
<path stroke-linejoin="miter" stroke-linecap="butt" stroke-miterlimit="4" stroke-width="2.1333" d="M5.392 29.333c0.556-4.822 4.616-8.532 9.541-8.532s8.985 3.709 9.537 8.487l0.004 0.045h-19.083zM14.933 17.333c-0.001 0-0.001 0-0.002 0-3.828 0-6.931-3.103-6.931-6.931 0-0.001 0-0.002 0-0.002v0c0-3.83 3.103-6.933 6.933-6.933s6.933 3.103 6.933 6.933-3.103 6.933-6.933 6.933z"></path>
</symbol>
<symbol id="icon-icondark-facebook" viewBox="0 0 32 32">
<path d="M0 5v22c0 2.761 2.239 5 5 5h22c2.761 0 5-2.239 5-5v-22c0-2.761-2.239-5-5-5h-22c-2.761 0-5 2.239-5 5zM16 8c4.4 0 8 3.6 8 8 0 4-2.9 7.4-6.9 8v-5.7h1.9l0.4-2.3h-2.2v-1.5c0-0.6 0.3-1.2 1.3-1.2h1v-2s-0.9-0.2-1.8-0.2c-1.8 0-3 1.1-3 3.1v1.8h-2v2.3h2v5.6c-3.8-0.6-6.7-3.9-6.7-7.9 0-4.4 3.6-8 8-8z"></path>
</symbol>
<symbol id="icon-icondark-inst" viewBox="0 0 32 32">
<path d="M16 18.8c-1.5 0-2.8-1.2-2.8-2.8 0-1.5 1.2-2.8 2.8-2.8 1.5 0 2.8 1.2 2.8 2.8 0 1.5-1.3 2.8-2.8 2.8z"></path>
<path d="M19.4 9.2l-0.003 0c0.018-0 0.037-0 0.055-0 0.468 0 0.915 0.091 1.301 0.248 0.052 0.019 0.101 0.037 0.147 0.052l-0.065-0.030c0.078 0.039 0.156 0.078 0.303 0.145 0.287 0.135 0.525 0.248 0.762 0.485 0.3 0.3 0.5 0.6 0.6 1 0.1 0.3 0.2 0.7 0.3 1.5v6.8l-0-0.003c0 0.018 0 0.037 0 0.055 0 0.468-0.091 0.915-0.248 1.301-0.019 0.052-0.037 0.101-0.052 0.147-0.042 0.083-0.079 0.163-0.115 0.238-0.135 0.287-0.248 0.525-0.485 0.762-0.3 0.3-0.6 0.5-1 0.6-0.3 0.1-0.7 0.2-1.5 0.3l-6.797-0c-0.018 0-0.036 0-0.054 0-0.468 0-0.915-0.091-1.301-0.248-0.053-0.019-0.102-0.037-0.148-0.052-0.083-0.042-0.163-0.079-0.238-0.115-0.287-0.135-0.525-0.248-0.762-0.485-0.3-0.3-0.5-0.6-0.6-1-0.1-0.3-0.2-0.7-0.3-1.5v-6.8l0 0.003c-0-0.018-0-0.036-0-0.054 0-0.468 0.091-0.915 0.248-1.301l-0.012 0.038c0.018-0.049 0.036-0.098 0.064-0.186 0.042-0.083 0.079-0.163 0.115-0.238 0.135-0.287 0.248-0.525 0.485-0.762 0.3-0.3 0.6-0.5 1-0.6 0.3-0.1 0.7-0.2 1.5-0.3h6.8zM16 11.7c-2.4 0-4.3 1.9-4.3 4.3s1.9 4.3 4.3 4.3 4.3-1.9 4.3-4.3-1.9-4.3-4.3-4.3zM21.4 11.6v0c0-0.552-0.448-1-1-1s-1 0.448-1 1v0c0 0.552 0.448 1 1 1s1-0.448 1-1z"></path>
<path d="M0 5v22c0 2.761 2.239 5 5 5h22c2.761 0 5-2.239 5-5v-22c0-2.761-2.239-5-5-5h-22c-2.761 0-5 2.239-5 5zM12.6 7.7h6.8c0.9 0.1 1.5 0.2 2 0.4 0.6 0.3 1 0.5 1.5 1s0.8 1 1 1.5c0.2 0.5 0.4 1.1 0.4 2v6.8c-0.1 0.9-0.2 1.5-0.4 2-0.3 0.6-0.5 1-1 1.5s-1 0.8-1.5 1c-0.5 0.2-1.1 0.4-2 0.4h-6.8c-0.9-0.1-1.5-0.2-2-0.4-0.6-0.3-1-0.5-1.5-1s-0.8-1-1-1.5c-0.2-0.5-0.4-1.1-0.4-2v-6.8c0.1-0.9 0.2-1.5 0.4-2 0.3-0.6 0.5-1 1-1.5s1-0.8 1.5-1c0.5-0.2 1.1-0.4 2-0.4z"></path>
</symbol>
<symbol id="icon-icondark-lke" viewBox="0 0 32 32">
<path fill="#fff" style="fill: var(--color1, #fff); stroke: var(--color1, #fff)" stroke="#fff" stroke-linejoin="miter" stroke-linecap="butt" stroke-miterlimit="4" stroke-width="2.1333" d="M15.246 7.421l0.754 0.754 0.754-0.754c1.205-1.205 3.136-2.354 5.246-2.354 3.396 0 6.267 2.789 6.267 6.933 0 4.254-2.273 7.659-5.082 10.307-2.491 2.348-5.296 4.004-7.090 5.062l-0.095 0.057-0.096-0.057c-1.793-1.058-4.598-2.714-7.089-5.062-2.809-2.647-5.082-6.053-5.082-10.307 0-4.139 2.916-6.933 6.267-6.933 2.109 0 4.041 1.149 5.246 2.354z"></path>
</symbol>
<symbol id="icon-icondark-search" viewBox="0 0 32 32">
<path stroke-linejoin="miter" stroke-linecap="butt" stroke-miterlimit="4" stroke-width="2.1333" d="M14.667 3.733c6.035 0 10.933 4.898 10.933 10.933s-4.898 10.933-10.933 10.933-10.933-4.898-10.933-10.933 4.898-10.933 10.933-10.933zM25.603 25.981l0.378-0.378 2.261 2.262-0.377 0.378-2.261-2.262z"></path>
</symbol>
<symbol id="icon-icondark-shopping" viewBox="0 0 32 32">
<path fill="#fff" style="fill: var(--color1, #fff); stroke: var(--color1, #fff)" stroke="#fff" stroke-linejoin="miter" stroke-linecap="butt" stroke-miterlimit="4" stroke-width="2.1333" d="M6.405 8.555v-0.441l-0.311-0.313-3.57-3.57 0.378-0.377 3.882 3.882h20.764c0 0 0 0 0.001 0 0.147 0 0.267 0.119 0.267 0.267 0 0.027-0.004 0.054-0.012 0.079l0-0.002-3.2 10.667c-0.034 0.111-0.135 0.19-0.255 0.19-0 0-0 0-0.001 0h-17.408v4.8h14.667v0.533h-14.933c-0.147 0-0.267-0.119-0.267-0.267v0-15.447zM7.339 29.603c-0.515 0-0.933-0.418-0.933-0.933s0.418-0.933 0.933-0.933v0c0.515 0 0.933 0.418 0.933 0.933s-0.418 0.933-0.933 0.933v0zM23.339 29.603c-0.515 0-0.933-0.418-0.933-0.933s0.418-0.933 0.933-0.933v0c0.515 0 0.933 0.418 0.933 0.933s-0.418 0.933-0.933 0.933v0z"></path>
</symbol>
<symbol id="icon-icondark-tt" viewBox="0 0 32 32">
<path d="M5 0c-2.761 0-5 2.239-5 5v0 22c0 2.761 2.239 5 5 5v0h22c2.761 0 5-2.239 5-5v0-22c0-2.761-2.239-5-5-5v0h-22zM19.118 8c0 0.238 0.022 0.472 0.063 0.699 0.204 1.056 0.817 1.94 1.664 2.498l0.014 0.009c0.584 0.389 1.302 0.62 2.074 0.62 0.003 0 0.005 0 0.008 0h-0v2.749c-0.002 0-0.004 0-0.006 0-1.433 0-2.759-0.461-3.836-1.243l0.019 0.013v5.592c-0.004 2.793-2.266 5.056-5.057 5.063h-0.001c-1.086-0-2.092-0.344-2.915-0.928l0.016 0.011c-1.313-0.926-2.16-2.437-2.161-4.145v-0c0-2.794 2.268-5.064 5.055-5.060 0.234 0 0.46 0.018 0.683 0.048v0.65l-0.008 0.004h0.008v2.155c-0.204-0.067-0.439-0.106-0.682-0.108h-0.001c-1.274 0.002-2.307 1.035-2.308 2.31v0c0.002 0.884 0.499 1.651 1.228 2.041l0.012 0.006 0.033 0.045c-0.010-0.018-0.020-0.034-0.031-0.049l0.001 0.001c0.323 0.17 0.687 0.267 1.073 0.267 1.243 0 2.26-0.992 2.305-2.225l0.004-11.022h2.746z"></path>
</symbol>
<symbol id="icon-iconlight-cab" viewBox="0 0 32 32">
<path stroke-linejoin="miter" stroke-linecap="butt" stroke-miterlimit="4" stroke-width="2.1333" d="M5.392 29.333c0.556-4.822 4.616-8.532 9.541-8.532s8.985 3.709 9.537 8.487l0.004 0.045h-19.083zM14.933 17.333c-0.001 0-0.001 0-0.002 0-3.828 0-6.931-3.103-6.931-6.931 0-0.001 0-0.002 0-0.002v0c0-3.83 3.103-6.933 6.933-6.933s6.933 3.103 6.933 6.933-3.103 6.933-6.933 6.933z"></path>
</symbol>
<symbol id="icon-iconlight-facebook" viewBox="0 0 32 32">
<path fill="#fff" style="fill: var(--color1, #fff)" d="M0 5v22c0 2.761 2.239 5 5 5h22c2.761 0 5-2.239 5-5v-22c0-2.761-2.239-5-5-5h-22c-2.761 0-5 2.239-5 5zM16 8c4.4 0 8 3.6 8 8 0 4-2.9 7.4-6.9 8v-5.7h1.9l0.4-2.3h-2.2v-1.5c0-0.6 0.3-1.2 1.3-1.2h1v-2s-0.9-0.2-1.8-0.2c-1.8 0-3 1.1-3 3.1v1.8h-2v2.3h2v5.6c-3.8-0.6-6.7-3.9-6.7-7.9 0-4.4 3.6-8 8-8z"></path>
</symbol>
<symbol id="icon-iconlight-inst" viewBox="0 0 32 32">
<path fill="#fff" style="fill: var(--color1, #fff)" d="M16 18.8c-1.5 0-2.8-1.2-2.8-2.8 0-1.5 1.2-2.8 2.8-2.8 1.5 0 2.8 1.2 2.8 2.8 0 1.5-1.3 2.8-2.8 2.8z"></path>
<path fill="#fff" style="fill: var(--color1, #fff)" d="M19.4 9.2l-0.003 0c0.018-0 0.037-0 0.055-0 0.468 0 0.915 0.091 1.301 0.248 0.052 0.019 0.101 0.037 0.147 0.052l-0.065-0.030c0.078 0.039 0.156 0.078 0.303 0.145 0.287 0.135 0.525 0.248 0.762 0.485 0.3 0.3 0.5 0.6 0.6 1 0.1 0.3 0.2 0.7 0.3 1.5v6.8l-0-0.003c0 0.018 0 0.037 0 0.055 0 0.468-0.091 0.915-0.248 1.301-0.019 0.052-0.037 0.101-0.052 0.147-0.042 0.083-0.079 0.163-0.115 0.238-0.135 0.287-0.248 0.525-0.485 0.762-0.3 0.3-0.6 0.5-1 0.6-0.3 0.1-0.7 0.2-1.5 0.3l-6.797-0c-0.018 0-0.036 0-0.054 0-0.468 0-0.915-0.091-1.301-0.248-0.053-0.019-0.102-0.037-0.148-0.052-0.083-0.042-0.163-0.079-0.238-0.115-0.287-0.135-0.525-0.248-0.762-0.485-0.3-0.3-0.5-0.6-0.6-1-0.1-0.3-0.2-0.7-0.3-1.5v-6.8l0 0.003c-0-0.018-0-0.036-0-0.054 0-0.468 0.091-0.915 0.248-1.301l-0.012 0.038c0.018-0.049 0.036-0.098 0.064-0.186 0.042-0.083 0.079-0.163 0.115-0.238 0.135-0.287 0.248-0.525 0.485-0.762 0.3-0.3 0.6-0.5 1-0.6 0.3-0.1 0.7-0.2 1.5-0.3h6.8zM16 11.7c-2.4 0-4.3 1.9-4.3 4.3s1.9 4.3 4.3 4.3 4.3-1.9 4.3-4.3-1.9-4.3-4.3-4.3zM21.4 11.6v0c0-0.552-0.448-1-1-1s-1 0.448-1 1v0c0 0.552 0.448 1 1 1s1-0.448 1-1z"></path>
<path fill="#fff" style="fill: var(--color1, #fff)" d="M0 5v22c0 2.761 2.239 5 5 5h22c2.761 0 5-2.239 5-5v-22c0-2.761-2.239-5-5-5h-22c-2.761 0-5 2.239-5 5zM12.6 7.7h6.8c0.9 0.1 1.5 0.2 2 0.4 0.6 0.3 1 0.5 1.5 1s0.8 1 1 1.5c0.2 0.5 0.4 1.1 0.4 2v6.8c-0.1 0.9-0.2 1.5-0.4 2-0.3 0.6-0.5 1-1 1.5s-1 0.8-1.5 1c-0.5 0.2-1.1 0.4-2 0.4h-6.8c-0.9-0.1-1.5-0.2-2-0.4-0.6-0.3-1-0.5-1.5-1s-0.8-1-1-1.5c-0.2-0.5-0.4-1.1-0.4-2v-6.8c0.1-0.9 0.2-1.5 0.4-2 0.3-0.6 0.5-1 1-1.5s1-0.8 1.5-1c0.5-0.2 1.1-0.4 2-0.4z"></path>
</symbol>
<symbol id="icon-iconlight-like" viewBox="0 0 32 32">
<path stroke-linejoin="miter" stroke-linecap="butt" stroke-miterlimit="4" stroke-width="2.1333" d="M15.246 7.421l0.754 0.754 0.754-0.754c1.205-1.205 3.136-2.354 5.246-2.354 3.396 0 6.267 2.789 6.267 6.933 0 4.254-2.273 7.659-5.082 10.307-2.491 2.348-5.296 4.004-7.090 5.062l-0.095 0.057-0.096-0.057c-1.793-1.058-4.598-2.714-7.089-5.062-2.809-2.647-5.082-6.053-5.082-10.307 0-4.139 2.916-6.933 6.267-6.933 2.109 0 4.041 1.149 5.246 2.354z"></path>
</symbol>
<symbol id="icon-iconlight-shopping" viewBox="0 0 32 32">
<path stroke-linejoin="miter" stroke-linecap="butt" stroke-miterlimit="4" stroke-width="2.1333" d="M6.405 8.555v-0.441l-0.311-0.313-3.57-3.57 0.378-0.377 3.882 3.882h20.764c0 0 0 0 0.001 0 0.147 0 0.267 0.119 0.267 0.267 0 0.027-0.004 0.054-0.012 0.079l0-0.002-3.2 10.667c-0.034 0.111-0.135 0.19-0.255 0.19-0 0-0 0-0.001 0h-17.408v4.8h14.667v0.533h-14.933c-0.147 0-0.267-0.119-0.267-0.267v0-15.447zM7.339 29.603c-0.515 0-0.933-0.418-0.933-0.933s0.418-0.933 0.933-0.933v0c0.515 0 0.933 0.418 0.933 0.933s-0.418 0.933-0.933 0.933v0zM23.339 29.603c-0.515 0-0.933-0.418-0.933-0.933s0.418-0.933 0.933-0.933v0c0.515 0 0.933 0.418 0.933 0.933s-0.418 0.933-0.933 0.933v0z"></path>
</symbol>
<symbol id="icon-iconlight-tt" viewBox="0 0 32 32">
<path d="M5 0c-2.761 0-5 2.239-5 5v0 22c0 2.761 2.239 5 5 5v0h22c2.761 0 5-2.239 5-5v0-22c0-2.761-2.239-5-5-5v0h-22zM19.118 8c0 0.238 0.022 0.472 0.063 0.699 0.204 1.056 0.817 1.94 1.664 2.498l0.014 0.009c0.584 0.389 1.302 0.62 2.074 0.62 0.003 0 0.005 0 0.008 0h-0v2.749c-0.002 0-0.004 0-0.006 0-1.433 0-2.759-0.461-3.836-1.243l0.019 0.013v5.592c-0.004 2.793-2.266 5.056-5.057 5.063h-0.001c-1.086-0-2.092-0.344-2.915-0.928l0.016 0.011c-1.313-0.926-2.16-2.437-2.161-4.145v-0c0-2.794 2.268-5.064 5.055-5.060 0.234 0 0.46 0.018 0.683 0.048v0.65l-0.008 0.004h0.008v2.155c-0.204-0.067-0.439-0.106-0.682-0.108h-0.001c-1.274 0.002-2.307 1.035-2.308 2.31v0c0.002 0.884 0.499 1.651 1.228 2.041l0.012 0.006 0.033 0.045c-0.010-0.018-0.020-0.034-0.031-0.049l0.001 0.001c0.323 0.17 0.687 0.267 1.073 0.267 1.243 0 2.26-0.992 2.305-2.225l0.004-11.022h2.746z"></path>
</symbol>
<symbol id="icon-iconsearch" viewBox="0 0 32 32">
<path fill="#fff" style="fill: var(--color1, #fff); stroke: var(--color1, #fff)" stroke="#fff" stroke-linejoin="miter" stroke-linecap="butt" stroke-miterlimit="4" stroke-width="2.1333" d="M14.667 3.733c6.035 0 10.933 4.898 10.933 10.933s-4.898 10.933-10.933 10.933-10.933-4.898-10.933-10.933 4.898-10.933 10.933-10.933zM25.603 25.981l0.378-0.378 2.261 2.262-0.377 0.378-2.261-2.262z"></path>
</symbol>
<symbol id="icon-itemdark" viewBox="0 0 32 32">
<path fill="#fff" style="fill: var(--color1, #fff)" d="M32 16c0 8.837-7.163 16-16 16s-16-7.163-16-16c0-8.837 7.163-16 16-16s16 7.163 16 16z"></path>
<path fill="#212121" style="fill: var(--color2, #212121)" d="M15.422 6.685c-1.363 1.28-2.212 3.094-2.212 5.106 0 3.866 3.134 7 7 7 2.012 0 3.826-0.849 5.103-2.208l0.003-0.004c-0.313 4.9-4.365 8.757-9.317 8.757-5.155 0-9.334-4.179-9.334-9.334 0-4.952 3.856-9.003 8.729-9.315l0.027-0.001z"></path>
</symbol>
<symbol id="icon-itemlight" viewBox="0 0 32 32">
<path fill="#212121" style="fill: var(--color2, #212121)" d="M32 16c0 8.837-7.163 16-16 16s-16-7.163-16-16c0-8.837 7.163-16 16-16s16 7.163 16 16z"></path>
<path fill="#fff" style="fill: var(--color1, #fff)" d="M16 21.6c-3.093 0-5.6-2.507-5.6-5.6s2.507-5.6 5.6-5.6v0c3.093 0 5.6 2.507 5.6 5.6s-2.507 5.6-5.6 5.6v0zM15.067 5.733h1.867v2.8h-1.867v-2.8zM15.067 23.467h1.867v2.8h-1.867v-2.8zM8.080 9.4l1.32-1.32 1.981 1.981-1.32 1.32-1.981-1.981zM20.619 21.939l1.32-1.32 1.981 1.981-1.32 1.32-1.981-1.981zM22.6 8.080l1.32 1.32-1.979 1.981-1.32-1.32 1.979-1.981zM10.061 20.619l1.32 1.32-1.981 1.981-1.32-1.32 1.981-1.981zM26.267 15.067v1.866h-2.8v-1.866h2.8zM8.533 15.067v1.866h-2.8v-1.866h2.8z"></path>
</symbol>
</defs>
</svg>
